<mxfile host="app.diagrams.net" modified="2021-01-14T18:49:27.507Z" agent="5.0 (Windows)" etag="a4l2DIMDFpCsmEiSDxan" version="14.2.3" type="github">
  <diagram name="Page-1" id="e56a1550-8fbb-45ad-956c-1786394a9013">
    <mxGraphModel dx="2050" dy="1150" grid="1" gridSize="10" guides="1" tooltips="1" connect="1" arrows="1" fold="1" page="1" pageScale="1" pageWidth="1920" pageHeight="1200" background="#ffffff" math="0" shadow="0">
      <root>
        <mxCell id="0" />
        <mxCell id="1" parent="0" />
        <mxCell id="dKACLaoBQJQbCitSLf5S-1" value="Musem" style="shape=table;startSize=30;container=1;collapsible=1;childLayout=tableLayout;fixedRows=1;rowLines=0;fontStyle=1;align=center;resizeLast=1;" vertex="1" parent="1">
          <mxGeometry x="60" y="860" width="330" height="160" as="geometry" />
        </mxCell>
        <mxCell id="dKACLaoBQJQbCitSLf5S-2" value="" style="shape=partialRectangle;collapsible=0;dropTarget=0;pointerEvents=0;fillColor=none;top=0;left=0;bottom=1;right=0;points=[[0,0.5],[1,0.5]];portConstraint=eastwest;align=center;" vertex="1" parent="dKACLaoBQJQbCitSLf5S-1">
          <mxGeometry y="30" width="330" height="30" as="geometry" />
        </mxCell>
        <mxCell id="dKACLaoBQJQbCitSLf5S-3" value="id" style="shape=partialRectangle;connectable=0;fillColor=none;top=0;left=0;bottom=0;right=0;fontStyle=1;overflow=hidden;align=center;" vertex="1" parent="dKACLaoBQJQbCitSLf5S-2">
          <mxGeometry width="110" height="30" as="geometry" />
        </mxCell>
        <mxCell id="dKACLaoBQJQbCitSLf5S-4" value="id" style="shape=partialRectangle;connectable=0;fillColor=none;top=0;left=0;bottom=0;right=0;align=center;spacingLeft=6;fontStyle=5;overflow=hidden;" vertex="1" parent="dKACLaoBQJQbCitSLf5S-2">
          <mxGeometry x="110" width="130" height="30" as="geometry" />
        </mxCell>
        <mxCell id="dKACLaoBQJQbCitSLf5S-14" value="PK M" style="shape=partialRectangle;connectable=0;fillColor=none;top=0;left=0;bottom=0;right=0;align=center;spacingLeft=6;fontStyle=5;overflow=hidden;" vertex="1" parent="dKACLaoBQJQbCitSLf5S-2">
          <mxGeometry x="240" width="90" height="30" as="geometry" />
        </mxCell>
        <mxCell id="dKACLaoBQJQbCitSLf5S-5" value="" style="shape=partialRectangle;collapsible=0;dropTarget=0;pointerEvents=0;fillColor=none;top=0;left=0;bottom=0;right=0;points=[[0,0.5],[1,0.5]];portConstraint=eastwest;align=center;" vertex="1" parent="dKACLaoBQJQbCitSLf5S-1">
          <mxGeometry y="60" width="330" height="30" as="geometry" />
        </mxCell>
        <mxCell id="dKACLaoBQJQbCitSLf5S-6" value="name" style="shape=partialRectangle;connectable=0;fillColor=none;top=0;left=0;bottom=0;right=0;editable=1;overflow=hidden;align=center;" vertex="1" parent="dKACLaoBQJQbCitSLf5S-5">
          <mxGeometry width="110" height="30" as="geometry" />
        </mxCell>
        <mxCell id="dKACLaoBQJQbCitSLf5S-7" value="object name" style="shape=partialRectangle;connectable=0;fillColor=none;top=0;left=0;bottom=0;right=0;align=center;spacingLeft=6;overflow=hidden;" vertex="1" parent="dKACLaoBQJQbCitSLf5S-5">
          <mxGeometry x="110" width="130" height="30" as="geometry" />
        </mxCell>
        <mxCell id="dKACLaoBQJQbCitSLf5S-15" value="M" style="shape=partialRectangle;connectable=0;fillColor=none;top=0;left=0;bottom=0;right=0;align=center;spacingLeft=6;overflow=hidden;" vertex="1" parent="dKACLaoBQJQbCitSLf5S-5">
          <mxGeometry x="240" width="90" height="30" as="geometry" />
        </mxCell>
        <mxCell id="dKACLaoBQJQbCitSLf5S-8" value="" style="shape=partialRectangle;collapsible=0;dropTarget=0;pointerEvents=0;fillColor=none;top=0;left=0;bottom=0;right=0;points=[[0,0.5],[1,0.5]];portConstraint=eastwest;align=center;" vertex="1" parent="dKACLaoBQJQbCitSLf5S-1">
          <mxGeometry y="90" width="330" height="30" as="geometry" />
        </mxCell>
        <mxCell id="dKACLaoBQJQbCitSLf5S-9" value="description" style="shape=partialRectangle;connectable=0;fillColor=none;top=0;left=0;bottom=0;right=0;editable=1;overflow=hidden;align=center;" vertex="1" parent="dKACLaoBQJQbCitSLf5S-8">
          <mxGeometry width="110" height="30" as="geometry" />
        </mxCell>
        <mxCell id="dKACLaoBQJQbCitSLf5S-10" value="description" style="shape=partialRectangle;connectable=0;fillColor=none;top=0;left=0;bottom=0;right=0;align=center;spacingLeft=6;overflow=hidden;" vertex="1" parent="dKACLaoBQJQbCitSLf5S-8">
          <mxGeometry x="110" width="130" height="30" as="geometry" />
        </mxCell>
        <mxCell id="dKACLaoBQJQbCitSLf5S-16" style="shape=partialRectangle;connectable=0;fillColor=none;top=0;left=0;bottom=0;right=0;align=center;spacingLeft=6;overflow=hidden;" vertex="1" parent="dKACLaoBQJQbCitSLf5S-8">
          <mxGeometry x="240" width="90" height="30" as="geometry" />
        </mxCell>
        <mxCell id="dKACLaoBQJQbCitSLf5S-11" value="" style="shape=partialRectangle;collapsible=0;dropTarget=0;pointerEvents=0;fillColor=none;top=0;left=0;bottom=0;right=0;points=[[0,0.5],[1,0.5]];portConstraint=eastwest;align=center;" vertex="1" parent="dKACLaoBQJQbCitSLf5S-1">
          <mxGeometry y="120" width="330" height="30" as="geometry" />
        </mxCell>
        <mxCell id="dKACLaoBQJQbCitSLf5S-12" value="" style="shape=partialRectangle;connectable=0;fillColor=none;top=0;left=0;bottom=0;right=0;editable=1;overflow=hidden;align=center;" vertex="1" parent="dKACLaoBQJQbCitSLf5S-11">
          <mxGeometry width="110" height="30" as="geometry" />
        </mxCell>
        <mxCell id="dKACLaoBQJQbCitSLf5S-13" value="" style="shape=partialRectangle;connectable=0;fillColor=none;top=0;left=0;bottom=0;right=0;align=center;spacingLeft=6;overflow=hidden;" vertex="1" parent="dKACLaoBQJQbCitSLf5S-11">
          <mxGeometry x="110" width="130" height="30" as="geometry" />
        </mxCell>
        <mxCell id="dKACLaoBQJQbCitSLf5S-17" style="shape=partialRectangle;connectable=0;fillColor=none;top=0;left=0;bottom=0;right=0;align=center;spacingLeft=6;overflow=hidden;" vertex="1" parent="dKACLaoBQJQbCitSLf5S-11">
          <mxGeometry x="240" width="90" height="30" as="geometry" />
        </mxCell>
        <mxCell id="dKACLaoBQJQbCitSLf5S-18" value="Branch" style="shape=table;startSize=30;container=1;collapsible=1;childLayout=tableLayout;fixedRows=1;rowLines=0;fontStyle=1;align=center;resizeLast=1;" vertex="1" parent="1">
          <mxGeometry x="80" y="570" width="330" height="160" as="geometry" />
        </mxCell>
        <mxCell id="dKACLaoBQJQbCitSLf5S-19" value="" style="shape=partialRectangle;collapsible=0;dropTarget=0;pointerEvents=0;fillColor=none;top=0;left=0;bottom=1;right=0;points=[[0,0.5],[1,0.5]];portConstraint=eastwest;align=center;" vertex="1" parent="dKACLaoBQJQbCitSLf5S-18">
          <mxGeometry y="30" width="330" height="30" as="geometry" />
        </mxCell>
        <mxCell id="dKACLaoBQJQbCitSLf5S-20" value="id" style="shape=partialRectangle;connectable=0;fillColor=none;top=0;left=0;bottom=0;right=0;fontStyle=1;overflow=hidden;align=center;" vertex="1" parent="dKACLaoBQJQbCitSLf5S-19">
          <mxGeometry width="110" height="30" as="geometry" />
        </mxCell>
        <mxCell id="dKACLaoBQJQbCitSLf5S-21" value="id" style="shape=partialRectangle;connectable=0;fillColor=none;top=0;left=0;bottom=0;right=0;align=center;spacingLeft=6;fontStyle=5;overflow=hidden;" vertex="1" parent="dKACLaoBQJQbCitSLf5S-19">
          <mxGeometry x="110" width="130" height="30" as="geometry" />
        </mxCell>
        <mxCell id="dKACLaoBQJQbCitSLf5S-22" value="PK M" style="shape=partialRectangle;connectable=0;fillColor=none;top=0;left=0;bottom=0;right=0;align=center;spacingLeft=6;fontStyle=5;overflow=hidden;" vertex="1" parent="dKACLaoBQJQbCitSLf5S-19">
          <mxGeometry x="240" width="90" height="30" as="geometry" />
        </mxCell>
        <mxCell id="dKACLaoBQJQbCitSLf5S-23" value="" style="shape=partialRectangle;collapsible=0;dropTarget=0;pointerEvents=0;fillColor=none;top=0;left=0;bottom=0;right=0;points=[[0,0.5],[1,0.5]];portConstraint=eastwest;align=center;" vertex="1" parent="dKACLaoBQJQbCitSLf5S-18">
          <mxGeometry y="60" width="330" height="30" as="geometry" />
        </mxCell>
        <mxCell id="dKACLaoBQJQbCitSLf5S-24" value="place" style="shape=partialRectangle;connectable=0;fillColor=none;top=0;left=0;bottom=0;right=0;editable=1;overflow=hidden;align=center;" vertex="1" parent="dKACLaoBQJQbCitSLf5S-23">
          <mxGeometry width="110" height="30" as="geometry" />
        </mxCell>
        <mxCell id="dKACLaoBQJQbCitSLf5S-25" value="address" style="shape=partialRectangle;connectable=0;fillColor=none;top=0;left=0;bottom=0;right=0;align=center;spacingLeft=6;overflow=hidden;" vertex="1" parent="dKACLaoBQJQbCitSLf5S-23">
          <mxGeometry x="110" width="130" height="30" as="geometry" />
        </mxCell>
        <mxCell id="dKACLaoBQJQbCitSLf5S-26" value="M" style="shape=partialRectangle;connectable=0;fillColor=none;top=0;left=0;bottom=0;right=0;align=center;spacingLeft=6;overflow=hidden;" vertex="1" parent="dKACLaoBQJQbCitSLf5S-23">
          <mxGeometry x="240" width="90" height="30" as="geometry" />
        </mxCell>
        <mxCell id="dKACLaoBQJQbCitSLf5S-27" value="" style="shape=partialRectangle;collapsible=0;dropTarget=0;pointerEvents=0;fillColor=none;top=0;left=0;bottom=0;right=0;points=[[0,0.5],[1,0.5]];portConstraint=eastwest;align=center;" vertex="1" parent="dKACLaoBQJQbCitSLf5S-18">
          <mxGeometry y="90" width="330" height="30" as="geometry" />
        </mxCell>
        <mxCell id="dKACLaoBQJQbCitSLf5S-28" value="description" style="shape=partialRectangle;connectable=0;fillColor=none;top=0;left=0;bottom=0;right=0;editable=1;overflow=hidden;align=center;" vertex="1" parent="dKACLaoBQJQbCitSLf5S-27">
          <mxGeometry width="110" height="30" as="geometry" />
        </mxCell>
        <mxCell id="dKACLaoBQJQbCitSLf5S-29" value="description" style="shape=partialRectangle;connectable=0;fillColor=none;top=0;left=0;bottom=0;right=0;align=center;spacingLeft=6;overflow=hidden;" vertex="1" parent="dKACLaoBQJQbCitSLf5S-27">
          <mxGeometry x="110" width="130" height="30" as="geometry" />
        </mxCell>
        <mxCell id="dKACLaoBQJQbCitSLf5S-30" style="shape=partialRectangle;connectable=0;fillColor=none;top=0;left=0;bottom=0;right=0;align=center;spacingLeft=6;overflow=hidden;" vertex="1" parent="dKACLaoBQJQbCitSLf5S-27">
          <mxGeometry x="240" width="90" height="30" as="geometry" />
        </mxCell>
        <mxCell id="dKACLaoBQJQbCitSLf5S-31" value="" style="shape=partialRectangle;collapsible=0;dropTarget=0;pointerEvents=0;fillColor=none;top=0;left=0;bottom=0;right=0;points=[[0,0.5],[1,0.5]];portConstraint=eastwest;align=center;" vertex="1" parent="dKACLaoBQJQbCitSLf5S-18">
          <mxGeometry y="120" width="330" height="30" as="geometry" />
        </mxCell>
        <mxCell id="dKACLaoBQJQbCitSLf5S-32" value="" style="shape=partialRectangle;connectable=0;fillColor=none;top=0;left=0;bottom=0;right=0;editable=1;overflow=hidden;align=center;" vertex="1" parent="dKACLaoBQJQbCitSLf5S-31">
          <mxGeometry width="110" height="30" as="geometry" />
        </mxCell>
        <mxCell id="dKACLaoBQJQbCitSLf5S-33" value="" style="shape=partialRectangle;connectable=0;fillColor=none;top=0;left=0;bottom=0;right=0;align=center;spacingLeft=6;overflow=hidden;" vertex="1" parent="dKACLaoBQJQbCitSLf5S-31">
          <mxGeometry x="110" width="130" height="30" as="geometry" />
        </mxCell>
        <mxCell id="dKACLaoBQJQbCitSLf5S-34" style="shape=partialRectangle;connectable=0;fillColor=none;top=0;left=0;bottom=0;right=0;align=center;spacingLeft=6;overflow=hidden;" vertex="1" parent="dKACLaoBQJQbCitSLf5S-31">
          <mxGeometry x="240" width="90" height="30" as="geometry" />
        </mxCell>
        <mxCell id="dKACLaoBQJQbCitSLf5S-35" value="Exhibit" style="shape=table;startSize=30;container=1;collapsible=1;childLayout=tableLayout;fixedRows=1;rowLines=0;fontStyle=1;align=center;resizeLast=1;" vertex="1" parent="1">
          <mxGeometry x="1370" y="560" width="330" height="190" as="geometry" />
        </mxCell>
        <mxCell id="dKACLaoBQJQbCitSLf5S-36" value="" style="shape=partialRectangle;collapsible=0;dropTarget=0;pointerEvents=0;fillColor=none;top=0;left=0;bottom=1;right=0;points=[[0,0.5],[1,0.5]];portConstraint=eastwest;align=center;" vertex="1" parent="dKACLaoBQJQbCitSLf5S-35">
          <mxGeometry y="30" width="330" height="30" as="geometry" />
        </mxCell>
        <mxCell id="dKACLaoBQJQbCitSLf5S-37" value="id" style="shape=partialRectangle;connectable=0;fillColor=none;top=0;left=0;bottom=0;right=0;fontStyle=1;overflow=hidden;align=center;" vertex="1" parent="dKACLaoBQJQbCitSLf5S-36">
          <mxGeometry width="110" height="30" as="geometry" />
        </mxCell>
        <mxCell id="dKACLaoBQJQbCitSLf5S-38" value="id" style="shape=partialRectangle;connectable=0;fillColor=none;top=0;left=0;bottom=0;right=0;align=center;spacingLeft=6;fontStyle=5;overflow=hidden;" vertex="1" parent="dKACLaoBQJQbCitSLf5S-36">
          <mxGeometry x="110" width="130" height="30" as="geometry" />
        </mxCell>
        <mxCell id="dKACLaoBQJQbCitSLf5S-39" value="PK M" style="shape=partialRectangle;connectable=0;fillColor=none;top=0;left=0;bottom=0;right=0;align=center;spacingLeft=6;fontStyle=5;overflow=hidden;" vertex="1" parent="dKACLaoBQJQbCitSLf5S-36">
          <mxGeometry x="240" width="90" height="30" as="geometry" />
        </mxCell>
        <mxCell id="dKACLaoBQJQbCitSLf5S-40" value="" style="shape=partialRectangle;collapsible=0;dropTarget=0;pointerEvents=0;fillColor=none;top=0;left=0;bottom=0;right=0;points=[[0,0.5],[1,0.5]];portConstraint=eastwest;align=center;" vertex="1" parent="dKACLaoBQJQbCitSLf5S-35">
          <mxGeometry y="60" width="330" height="30" as="geometry" />
        </mxCell>
        <mxCell id="dKACLaoBQJQbCitSLf5S-41" value="name" style="shape=partialRectangle;connectable=0;fillColor=none;top=0;left=0;bottom=0;right=0;editable=1;overflow=hidden;align=center;" vertex="1" parent="dKACLaoBQJQbCitSLf5S-40">
          <mxGeometry width="110" height="30" as="geometry" />
        </mxCell>
        <mxCell id="dKACLaoBQJQbCitSLf5S-42" value="object name" style="shape=partialRectangle;connectable=0;fillColor=none;top=0;left=0;bottom=0;right=0;align=center;spacingLeft=6;overflow=hidden;" vertex="1" parent="dKACLaoBQJQbCitSLf5S-40">
          <mxGeometry x="110" width="130" height="30" as="geometry" />
        </mxCell>
        <mxCell id="dKACLaoBQJQbCitSLf5S-43" value="M" style="shape=partialRectangle;connectable=0;fillColor=none;top=0;left=0;bottom=0;right=0;align=center;spacingLeft=6;overflow=hidden;" vertex="1" parent="dKACLaoBQJQbCitSLf5S-40">
          <mxGeometry x="240" width="90" height="30" as="geometry" />
        </mxCell>
        <mxCell id="dKACLaoBQJQbCitSLf5S-44" value="" style="shape=partialRectangle;collapsible=0;dropTarget=0;pointerEvents=0;fillColor=none;top=0;left=0;bottom=0;right=0;points=[[0,0.5],[1,0.5]];portConstraint=eastwest;align=center;" vertex="1" parent="dKACLaoBQJQbCitSLf5S-35">
          <mxGeometry y="90" width="330" height="30" as="geometry" />
        </mxCell>
        <mxCell id="dKACLaoBQJQbCitSLf5S-45" value="description" style="shape=partialRectangle;connectable=0;fillColor=none;top=0;left=0;bottom=0;right=0;editable=1;overflow=hidden;align=center;" vertex="1" parent="dKACLaoBQJQbCitSLf5S-44">
          <mxGeometry width="110" height="30" as="geometry" />
        </mxCell>
        <mxCell id="dKACLaoBQJQbCitSLf5S-46" value="description" style="shape=partialRectangle;connectable=0;fillColor=none;top=0;left=0;bottom=0;right=0;align=center;spacingLeft=6;overflow=hidden;" vertex="1" parent="dKACLaoBQJQbCitSLf5S-44">
          <mxGeometry x="110" width="130" height="30" as="geometry" />
        </mxCell>
        <mxCell id="dKACLaoBQJQbCitSLf5S-47" style="shape=partialRectangle;connectable=0;fillColor=none;top=0;left=0;bottom=0;right=0;align=center;spacingLeft=6;overflow=hidden;" vertex="1" parent="dKACLaoBQJQbCitSLf5S-44">
          <mxGeometry x="240" width="90" height="30" as="geometry" />
        </mxCell>
        <mxCell id="dKACLaoBQJQbCitSLf5S-48" value="" style="shape=partialRectangle;collapsible=0;dropTarget=0;pointerEvents=0;fillColor=none;top=0;left=0;bottom=0;right=0;points=[[0,0.5],[1,0.5]];portConstraint=eastwest;align=center;" vertex="1" parent="dKACLaoBQJQbCitSLf5S-35">
          <mxGeometry y="120" width="330" height="30" as="geometry" />
        </mxCell>
        <mxCell id="dKACLaoBQJQbCitSLf5S-49" value="type" style="shape=partialRectangle;connectable=0;fillColor=none;top=0;left=0;bottom=0;right=0;editable=1;overflow=hidden;align=center;" vertex="1" parent="dKACLaoBQJQbCitSLf5S-48">
          <mxGeometry width="110" height="30" as="geometry" />
        </mxCell>
        <mxCell id="dKACLaoBQJQbCitSLf5S-50" value="exhibit type" style="shape=partialRectangle;connectable=0;fillColor=none;top=0;left=0;bottom=0;right=0;align=center;spacingLeft=6;overflow=hidden;" vertex="1" parent="dKACLaoBQJQbCitSLf5S-48">
          <mxGeometry x="110" width="130" height="30" as="geometry" />
        </mxCell>
        <mxCell id="dKACLaoBQJQbCitSLf5S-51" value="M" style="shape=partialRectangle;connectable=0;fillColor=none;top=0;left=0;bottom=0;right=0;align=center;spacingLeft=6;overflow=hidden;" vertex="1" parent="dKACLaoBQJQbCitSLf5S-48">
          <mxGeometry x="240" width="90" height="30" as="geometry" />
        </mxCell>
        <mxCell id="dKACLaoBQJQbCitSLf5S-52" value="" style="shape=partialRectangle;collapsible=0;dropTarget=0;pointerEvents=0;fillColor=none;top=0;left=0;bottom=0;right=0;points=[[0,0.5],[1,0.5]];portConstraint=eastwest;align=center;" vertex="1" parent="dKACLaoBQJQbCitSLf5S-35">
          <mxGeometry y="150" width="330" height="30" as="geometry" />
        </mxCell>
        <mxCell id="dKACLaoBQJQbCitSLf5S-53" value="date" style="shape=partialRectangle;connectable=0;fillColor=none;top=0;left=0;bottom=0;right=0;editable=1;overflow=hidden;align=center;" vertex="1" parent="dKACLaoBQJQbCitSLf5S-52">
          <mxGeometry width="110" height="30" as="geometry" />
        </mxCell>
        <mxCell id="dKACLaoBQJQbCitSLf5S-54" value="date" style="shape=partialRectangle;connectable=0;fillColor=none;top=0;left=0;bottom=0;right=0;align=center;spacingLeft=6;overflow=hidden;" vertex="1" parent="dKACLaoBQJQbCitSLf5S-52">
          <mxGeometry x="110" width="130" height="30" as="geometry" />
        </mxCell>
        <mxCell id="dKACLaoBQJQbCitSLf5S-55" value="" style="shape=partialRectangle;connectable=0;fillColor=none;top=0;left=0;bottom=0;right=0;align=center;spacingLeft=6;overflow=hidden;" vertex="1" parent="dKACLaoBQJQbCitSLf5S-52">
          <mxGeometry x="240" width="90" height="30" as="geometry" />
        </mxCell>
        <mxCell id="dKACLaoBQJQbCitSLf5S-56" value="Author" style="shape=table;startSize=30;container=1;collapsible=1;childLayout=tableLayout;fixedRows=1;rowLines=0;fontStyle=1;align=center;resizeLast=1;" vertex="1" parent="1">
          <mxGeometry x="1460" y="250" width="330" height="160" as="geometry" />
        </mxCell>
        <mxCell id="dKACLaoBQJQbCitSLf5S-57" value="" style="shape=partialRectangle;collapsible=0;dropTarget=0;pointerEvents=0;fillColor=none;top=0;left=0;bottom=1;right=0;points=[[0,0.5],[1,0.5]];portConstraint=eastwest;align=center;" vertex="1" parent="dKACLaoBQJQbCitSLf5S-56">
          <mxGeometry y="30" width="330" height="30" as="geometry" />
        </mxCell>
        <mxCell id="dKACLaoBQJQbCitSLf5S-58" value="id" style="shape=partialRectangle;connectable=0;fillColor=none;top=0;left=0;bottom=0;right=0;fontStyle=1;overflow=hidden;align=center;" vertex="1" parent="dKACLaoBQJQbCitSLf5S-57">
          <mxGeometry width="110" height="30" as="geometry" />
        </mxCell>
        <mxCell id="dKACLaoBQJQbCitSLf5S-59" value="id" style="shape=partialRectangle;connectable=0;fillColor=none;top=0;left=0;bottom=0;right=0;align=center;spacingLeft=6;fontStyle=5;overflow=hidden;" vertex="1" parent="dKACLaoBQJQbCitSLf5S-57">
          <mxGeometry x="110" width="130" height="30" as="geometry" />
        </mxCell>
        <mxCell id="dKACLaoBQJQbCitSLf5S-60" value="PK M" style="shape=partialRectangle;connectable=0;fillColor=none;top=0;left=0;bottom=0;right=0;align=center;spacingLeft=6;fontStyle=5;overflow=hidden;" vertex="1" parent="dKACLaoBQJQbCitSLf5S-57">
          <mxGeometry x="240" width="90" height="30" as="geometry" />
        </mxCell>
        <mxCell id="dKACLaoBQJQbCitSLf5S-61" value="" style="shape=partialRectangle;collapsible=0;dropTarget=0;pointerEvents=0;fillColor=none;top=0;left=0;bottom=0;right=0;points=[[0,0.5],[1,0.5]];portConstraint=eastwest;align=center;" vertex="1" parent="dKACLaoBQJQbCitSLf5S-56">
          <mxGeometry y="60" width="330" height="30" as="geometry" />
        </mxCell>
        <mxCell id="dKACLaoBQJQbCitSLf5S-62" value="name" style="shape=partialRectangle;connectable=0;fillColor=none;top=0;left=0;bottom=0;right=0;editable=1;overflow=hidden;align=center;" vertex="1" parent="dKACLaoBQJQbCitSLf5S-61">
          <mxGeometry width="110" height="30" as="geometry" />
        </mxCell>
        <mxCell id="dKACLaoBQJQbCitSLf5S-63" value="person name" style="shape=partialRectangle;connectable=0;fillColor=none;top=0;left=0;bottom=0;right=0;align=center;spacingLeft=6;overflow=hidden;" vertex="1" parent="dKACLaoBQJQbCitSLf5S-61">
          <mxGeometry x="110" width="130" height="30" as="geometry" />
        </mxCell>
        <mxCell id="dKACLaoBQJQbCitSLf5S-64" value="M" style="shape=partialRectangle;connectable=0;fillColor=none;top=0;left=0;bottom=0;right=0;align=center;spacingLeft=6;overflow=hidden;" vertex="1" parent="dKACLaoBQJQbCitSLf5S-61">
          <mxGeometry x="240" width="90" height="30" as="geometry" />
        </mxCell>
        <mxCell id="dKACLaoBQJQbCitSLf5S-65" value="" style="shape=partialRectangle;collapsible=0;dropTarget=0;pointerEvents=0;fillColor=none;top=0;left=0;bottom=0;right=0;points=[[0,0.5],[1,0.5]];portConstraint=eastwest;align=center;" vertex="1" parent="dKACLaoBQJQbCitSLf5S-56">
          <mxGeometry y="90" width="330" height="30" as="geometry" />
        </mxCell>
        <mxCell id="dKACLaoBQJQbCitSLf5S-66" value="country" style="shape=partialRectangle;connectable=0;fillColor=none;top=0;left=0;bottom=0;right=0;editable=1;overflow=hidden;align=center;" vertex="1" parent="dKACLaoBQJQbCitSLf5S-65">
          <mxGeometry width="110" height="30" as="geometry" />
        </mxCell>
        <mxCell id="dKACLaoBQJQbCitSLf5S-67" value="country" style="shape=partialRectangle;connectable=0;fillColor=none;top=0;left=0;bottom=0;right=0;align=center;spacingLeft=6;overflow=hidden;" vertex="1" parent="dKACLaoBQJQbCitSLf5S-65">
          <mxGeometry x="110" width="130" height="30" as="geometry" />
        </mxCell>
        <mxCell id="dKACLaoBQJQbCitSLf5S-68" style="shape=partialRectangle;connectable=0;fillColor=none;top=0;left=0;bottom=0;right=0;align=center;spacingLeft=6;overflow=hidden;" vertex="1" parent="dKACLaoBQJQbCitSLf5S-65">
          <mxGeometry x="240" width="90" height="30" as="geometry" />
        </mxCell>
        <mxCell id="dKACLaoBQJQbCitSLf5S-69" value="" style="shape=partialRectangle;collapsible=0;dropTarget=0;pointerEvents=0;fillColor=none;top=0;left=0;bottom=0;right=0;points=[[0,0.5],[1,0.5]];portConstraint=eastwest;align=center;" vertex="1" parent="dKACLaoBQJQbCitSLf5S-56">
          <mxGeometry y="120" width="330" height="30" as="geometry" />
        </mxCell>
        <mxCell id="dKACLaoBQJQbCitSLf5S-70" value="biography" style="shape=partialRectangle;connectable=0;fillColor=none;top=0;left=0;bottom=0;right=0;editable=1;overflow=hidden;align=center;" vertex="1" parent="dKACLaoBQJQbCitSLf5S-69">
          <mxGeometry width="110" height="30" as="geometry" />
        </mxCell>
        <mxCell id="dKACLaoBQJQbCitSLf5S-71" value="description" style="shape=partialRectangle;connectable=0;fillColor=none;top=0;left=0;bottom=0;right=0;align=center;spacingLeft=6;overflow=hidden;" vertex="1" parent="dKACLaoBQJQbCitSLf5S-69">
          <mxGeometry x="110" width="130" height="30" as="geometry" />
        </mxCell>
        <mxCell id="dKACLaoBQJQbCitSLf5S-72" style="shape=partialRectangle;connectable=0;fillColor=none;top=0;left=0;bottom=0;right=0;align=center;spacingLeft=6;overflow=hidden;" vertex="1" parent="dKACLaoBQJQbCitSLf5S-69">
          <mxGeometry x="240" width="90" height="30" as="geometry" />
        </mxCell>
        <mxCell id="dKACLaoBQJQbCitSLf5S-73" value="Organizer" style="shape=table;startSize=30;container=1;collapsible=1;childLayout=tableLayout;fixedRows=1;rowLines=0;fontStyle=1;align=center;resizeLast=1;" vertex="1" parent="1">
          <mxGeometry x="930" y="820" width="330" height="160" as="geometry" />
        </mxCell>
        <mxCell id="dKACLaoBQJQbCitSLf5S-74" value="" style="shape=partialRectangle;collapsible=0;dropTarget=0;pointerEvents=0;fillColor=none;top=0;left=0;bottom=1;right=0;points=[[0,0.5],[1,0.5]];portConstraint=eastwest;align=center;" vertex="1" parent="dKACLaoBQJQbCitSLf5S-73">
          <mxGeometry y="30" width="330" height="30" as="geometry" />
        </mxCell>
        <mxCell id="dKACLaoBQJQbCitSLf5S-75" value="id" style="shape=partialRectangle;connectable=0;fillColor=none;top=0;left=0;bottom=0;right=0;fontStyle=1;overflow=hidden;align=center;" vertex="1" parent="dKACLaoBQJQbCitSLf5S-74">
          <mxGeometry width="110" height="30" as="geometry" />
        </mxCell>
        <mxCell id="dKACLaoBQJQbCitSLf5S-76" value="id" style="shape=partialRectangle;connectable=0;fillColor=none;top=0;left=0;bottom=0;right=0;align=center;spacingLeft=6;fontStyle=5;overflow=hidden;" vertex="1" parent="dKACLaoBQJQbCitSLf5S-74">
          <mxGeometry x="110" width="130" height="30" as="geometry" />
        </mxCell>
        <mxCell id="dKACLaoBQJQbCitSLf5S-77" value="PK M" style="shape=partialRectangle;connectable=0;fillColor=none;top=0;left=0;bottom=0;right=0;align=center;spacingLeft=6;fontStyle=5;overflow=hidden;" vertex="1" parent="dKACLaoBQJQbCitSLf5S-74">
          <mxGeometry x="240" width="90" height="30" as="geometry" />
        </mxCell>
        <mxCell id="dKACLaoBQJQbCitSLf5S-78" value="" style="shape=partialRectangle;collapsible=0;dropTarget=0;pointerEvents=0;fillColor=none;top=0;left=0;bottom=0;right=0;points=[[0,0.5],[1,0.5]];portConstraint=eastwest;align=center;" vertex="1" parent="dKACLaoBQJQbCitSLf5S-73">
          <mxGeometry y="60" width="330" height="30" as="geometry" />
        </mxCell>
        <mxCell id="dKACLaoBQJQbCitSLf5S-79" value="name" style="shape=partialRectangle;connectable=0;fillColor=none;top=0;left=0;bottom=0;right=0;editable=1;overflow=hidden;align=center;" vertex="1" parent="dKACLaoBQJQbCitSLf5S-78">
          <mxGeometry width="110" height="30" as="geometry" />
        </mxCell>
        <mxCell id="dKACLaoBQJQbCitSLf5S-80" value="person name" style="shape=partialRectangle;connectable=0;fillColor=none;top=0;left=0;bottom=0;right=0;align=center;spacingLeft=6;overflow=hidden;" vertex="1" parent="dKACLaoBQJQbCitSLf5S-78">
          <mxGeometry x="110" width="130" height="30" as="geometry" />
        </mxCell>
        <mxCell id="dKACLaoBQJQbCitSLf5S-81" value="M" style="shape=partialRectangle;connectable=0;fillColor=none;top=0;left=0;bottom=0;right=0;align=center;spacingLeft=6;overflow=hidden;" vertex="1" parent="dKACLaoBQJQbCitSLf5S-78">
          <mxGeometry x="240" width="90" height="30" as="geometry" />
        </mxCell>
        <mxCell id="dKACLaoBQJQbCitSLf5S-82" value="" style="shape=partialRectangle;collapsible=0;dropTarget=0;pointerEvents=0;fillColor=none;top=0;left=0;bottom=0;right=0;points=[[0,0.5],[1,0.5]];portConstraint=eastwest;align=center;" vertex="1" parent="dKACLaoBQJQbCitSLf5S-73">
          <mxGeometry y="90" width="330" height="30" as="geometry" />
        </mxCell>
        <mxCell id="dKACLaoBQJQbCitSLf5S-83" value="post" style="shape=partialRectangle;connectable=0;fillColor=none;top=0;left=0;bottom=0;right=0;editable=1;overflow=hidden;align=center;" vertex="1" parent="dKACLaoBQJQbCitSLf5S-82">
          <mxGeometry width="110" height="30" as="geometry" />
        </mxCell>
        <mxCell id="dKACLaoBQJQbCitSLf5S-84" value="post" style="shape=partialRectangle;connectable=0;fillColor=none;top=0;left=0;bottom=0;right=0;align=center;spacingLeft=6;overflow=hidden;" vertex="1" parent="dKACLaoBQJQbCitSLf5S-82">
          <mxGeometry x="110" width="130" height="30" as="geometry" />
        </mxCell>
        <mxCell id="dKACLaoBQJQbCitSLf5S-85" style="shape=partialRectangle;connectable=0;fillColor=none;top=0;left=0;bottom=0;right=0;align=center;spacingLeft=6;overflow=hidden;" vertex="1" parent="dKACLaoBQJQbCitSLf5S-82">
          <mxGeometry x="240" width="90" height="30" as="geometry" />
        </mxCell>
        <mxCell id="dKACLaoBQJQbCitSLf5S-86" value="" style="shape=partialRectangle;collapsible=0;dropTarget=0;pointerEvents=0;fillColor=none;top=0;left=0;bottom=0;right=0;points=[[0,0.5],[1,0.5]];portConstraint=eastwest;align=center;" vertex="1" parent="dKACLaoBQJQbCitSLf5S-73">
          <mxGeometry y="120" width="330" height="30" as="geometry" />
        </mxCell>
        <mxCell id="dKACLaoBQJQbCitSLf5S-87" value="" style="shape=partialRectangle;connectable=0;fillColor=none;top=0;left=0;bottom=0;right=0;editable=1;overflow=hidden;align=center;" vertex="1" parent="dKACLaoBQJQbCitSLf5S-86">
          <mxGeometry width="110" height="30" as="geometry" />
        </mxCell>
        <mxCell id="dKACLaoBQJQbCitSLf5S-88" value="" style="shape=partialRectangle;connectable=0;fillColor=none;top=0;left=0;bottom=0;right=0;align=center;spacingLeft=6;overflow=hidden;" vertex="1" parent="dKACLaoBQJQbCitSLf5S-86">
          <mxGeometry x="110" width="130" height="30" as="geometry" />
        </mxCell>
        <mxCell id="dKACLaoBQJQbCitSLf5S-89" style="shape=partialRectangle;connectable=0;fillColor=none;top=0;left=0;bottom=0;right=0;align=center;spacingLeft=6;overflow=hidden;" vertex="1" parent="dKACLaoBQJQbCitSLf5S-86">
          <mxGeometry x="240" width="90" height="30" as="geometry" />
        </mxCell>
        <mxCell id="dKACLaoBQJQbCitSLf5S-90" value="Exhibition" style="shape=table;startSize=30;container=1;collapsible=1;childLayout=tableLayout;fixedRows=1;rowLines=0;fontStyle=1;align=center;resizeLast=1;" vertex="1" parent="1">
          <mxGeometry x="920" y="570" width="330" height="160" as="geometry" />
        </mxCell>
        <mxCell id="dKACLaoBQJQbCitSLf5S-91" value="" style="shape=partialRectangle;collapsible=0;dropTarget=0;pointerEvents=0;fillColor=none;top=0;left=0;bottom=1;right=0;points=[[0,0.5],[1,0.5]];portConstraint=eastwest;align=center;" vertex="1" parent="dKACLaoBQJQbCitSLf5S-90">
          <mxGeometry y="30" width="330" height="30" as="geometry" />
        </mxCell>
        <mxCell id="dKACLaoBQJQbCitSLf5S-92" value="id" style="shape=partialRectangle;connectable=0;fillColor=none;top=0;left=0;bottom=0;right=0;fontStyle=1;overflow=hidden;align=center;" vertex="1" parent="dKACLaoBQJQbCitSLf5S-91">
          <mxGeometry width="110" height="30" as="geometry" />
        </mxCell>
        <mxCell id="dKACLaoBQJQbCitSLf5S-93" value="id" style="shape=partialRectangle;connectable=0;fillColor=none;top=0;left=0;bottom=0;right=0;align=center;spacingLeft=6;fontStyle=5;overflow=hidden;" vertex="1" parent="dKACLaoBQJQbCitSLf5S-91">
          <mxGeometry x="110" width="130" height="30" as="geometry" />
        </mxCell>
        <mxCell id="dKACLaoBQJQbCitSLf5S-94" value="PK M" style="shape=partialRectangle;connectable=0;fillColor=none;top=0;left=0;bottom=0;right=0;align=center;spacingLeft=6;fontStyle=5;overflow=hidden;" vertex="1" parent="dKACLaoBQJQbCitSLf5S-91">
          <mxGeometry x="240" width="90" height="30" as="geometry" />
        </mxCell>
        <mxCell id="dKACLaoBQJQbCitSLf5S-95" value="" style="shape=partialRectangle;collapsible=0;dropTarget=0;pointerEvents=0;fillColor=none;top=0;left=0;bottom=0;right=0;points=[[0,0.5],[1,0.5]];portConstraint=eastwest;align=center;" vertex="1" parent="dKACLaoBQJQbCitSLf5S-90">
          <mxGeometry y="60" width="330" height="30" as="geometry" />
        </mxCell>
        <mxCell id="dKACLaoBQJQbCitSLf5S-96" value="name" style="shape=partialRectangle;connectable=0;fillColor=none;top=0;left=0;bottom=0;right=0;editable=1;overflow=hidden;align=center;" vertex="1" parent="dKACLaoBQJQbCitSLf5S-95">
          <mxGeometry width="110" height="30" as="geometry" />
        </mxCell>
        <mxCell id="dKACLaoBQJQbCitSLf5S-97" value="object name" style="shape=partialRectangle;connectable=0;fillColor=none;top=0;left=0;bottom=0;right=0;align=center;spacingLeft=6;overflow=hidden;" vertex="1" parent="dKACLaoBQJQbCitSLf5S-95">
          <mxGeometry x="110" width="130" height="30" as="geometry" />
        </mxCell>
        <mxCell id="dKACLaoBQJQbCitSLf5S-98" value="M" style="shape=partialRectangle;connectable=0;fillColor=none;top=0;left=0;bottom=0;right=0;align=center;spacingLeft=6;overflow=hidden;" vertex="1" parent="dKACLaoBQJQbCitSLf5S-95">
          <mxGeometry x="240" width="90" height="30" as="geometry" />
        </mxCell>
        <mxCell id="dKACLaoBQJQbCitSLf5S-99" value="" style="shape=partialRectangle;collapsible=0;dropTarget=0;pointerEvents=0;fillColor=none;top=0;left=0;bottom=0;right=0;points=[[0,0.5],[1,0.5]];portConstraint=eastwest;align=center;" vertex="1" parent="dKACLaoBQJQbCitSLf5S-90">
          <mxGeometry y="90" width="330" height="30" as="geometry" />
        </mxCell>
        <mxCell id="dKACLaoBQJQbCitSLf5S-100" value="period" style="shape=partialRectangle;connectable=0;fillColor=none;top=0;left=0;bottom=0;right=0;editable=1;overflow=hidden;align=center;" vertex="1" parent="dKACLaoBQJQbCitSLf5S-99">
          <mxGeometry width="110" height="30" as="geometry" />
        </mxCell>
        <mxCell id="dKACLaoBQJQbCitSLf5S-101" value="date range" style="shape=partialRectangle;connectable=0;fillColor=none;top=0;left=0;bottom=0;right=0;align=center;spacingLeft=6;overflow=hidden;" vertex="1" parent="dKACLaoBQJQbCitSLf5S-99">
          <mxGeometry x="110" width="130" height="30" as="geometry" />
        </mxCell>
        <mxCell id="dKACLaoBQJQbCitSLf5S-102" style="shape=partialRectangle;connectable=0;fillColor=none;top=0;left=0;bottom=0;right=0;align=center;spacingLeft=6;overflow=hidden;" vertex="1" parent="dKACLaoBQJQbCitSLf5S-99">
          <mxGeometry x="240" width="90" height="30" as="geometry" />
        </mxCell>
        <mxCell id="dKACLaoBQJQbCitSLf5S-103" value="" style="shape=partialRectangle;collapsible=0;dropTarget=0;pointerEvents=0;fillColor=none;top=0;left=0;bottom=0;right=0;points=[[0,0.5],[1,0.5]];portConstraint=eastwest;align=center;" vertex="1" parent="dKACLaoBQJQbCitSLf5S-90">
          <mxGeometry y="120" width="330" height="30" as="geometry" />
        </mxCell>
        <mxCell id="dKACLaoBQJQbCitSLf5S-104" value="" style="shape=partialRectangle;connectable=0;fillColor=none;top=0;left=0;bottom=0;right=0;editable=1;overflow=hidden;align=center;" vertex="1" parent="dKACLaoBQJQbCitSLf5S-103">
          <mxGeometry width="110" height="30" as="geometry" />
        </mxCell>
        <mxCell id="dKACLaoBQJQbCitSLf5S-105" value="" style="shape=partialRectangle;connectable=0;fillColor=none;top=0;left=0;bottom=0;right=0;align=center;spacingLeft=6;overflow=hidden;" vertex="1" parent="dKACLaoBQJQbCitSLf5S-103">
          <mxGeometry x="110" width="130" height="30" as="geometry" />
        </mxCell>
        <mxCell id="dKACLaoBQJQbCitSLf5S-106" style="shape=partialRectangle;connectable=0;fillColor=none;top=0;left=0;bottom=0;right=0;align=center;spacingLeft=6;overflow=hidden;" vertex="1" parent="dKACLaoBQJQbCitSLf5S-103">
          <mxGeometry x="240" width="90" height="30" as="geometry" />
        </mxCell>
        <mxCell id="dKACLaoBQJQbCitSLf5S-124" value="Ticket" style="shape=table;startSize=30;container=1;collapsible=1;childLayout=tableLayout;fixedRows=1;rowLines=0;fontStyle=1;align=center;resizeLast=1;" vertex="1" parent="1">
          <mxGeometry x="610" y="260" width="330" height="160" as="geometry" />
        </mxCell>
        <mxCell id="dKACLaoBQJQbCitSLf5S-125" value="" style="shape=partialRectangle;collapsible=0;dropTarget=0;pointerEvents=0;fillColor=none;top=0;left=0;bottom=1;right=0;points=[[0,0.5],[1,0.5]];portConstraint=eastwest;align=center;" vertex="1" parent="dKACLaoBQJQbCitSLf5S-124">
          <mxGeometry y="30" width="330" height="30" as="geometry" />
        </mxCell>
        <mxCell id="dKACLaoBQJQbCitSLf5S-126" value="id" style="shape=partialRectangle;connectable=0;fillColor=none;top=0;left=0;bottom=0;right=0;fontStyle=1;overflow=hidden;align=center;" vertex="1" parent="dKACLaoBQJQbCitSLf5S-125">
          <mxGeometry width="110" height="30" as="geometry" />
        </mxCell>
        <mxCell id="dKACLaoBQJQbCitSLf5S-127" value="id" style="shape=partialRectangle;connectable=0;fillColor=none;top=0;left=0;bottom=0;right=0;align=center;spacingLeft=6;fontStyle=5;overflow=hidden;" vertex="1" parent="dKACLaoBQJQbCitSLf5S-125">
          <mxGeometry x="110" width="130" height="30" as="geometry" />
        </mxCell>
        <mxCell id="dKACLaoBQJQbCitSLf5S-128" value="PK M" style="shape=partialRectangle;connectable=0;fillColor=none;top=0;left=0;bottom=0;right=0;align=center;spacingLeft=6;fontStyle=5;overflow=hidden;" vertex="1" parent="dKACLaoBQJQbCitSLf5S-125">
          <mxGeometry x="240" width="90" height="30" as="geometry" />
        </mxCell>
        <mxCell id="dKACLaoBQJQbCitSLf5S-129" value="" style="shape=partialRectangle;collapsible=0;dropTarget=0;pointerEvents=0;fillColor=none;top=0;left=0;bottom=0;right=0;points=[[0,0.5],[1,0.5]];portConstraint=eastwest;align=center;" vertex="1" parent="dKACLaoBQJQbCitSLf5S-124">
          <mxGeometry y="60" width="330" height="30" as="geometry" />
        </mxCell>
        <mxCell id="dKACLaoBQJQbCitSLf5S-130" value="price" style="shape=partialRectangle;connectable=0;fillColor=none;top=0;left=0;bottom=0;right=0;editable=1;overflow=hidden;align=center;" vertex="1" parent="dKACLaoBQJQbCitSLf5S-129">
          <mxGeometry width="110" height="30" as="geometry" />
        </mxCell>
        <mxCell id="dKACLaoBQJQbCitSLf5S-131" value="price" style="shape=partialRectangle;connectable=0;fillColor=none;top=0;left=0;bottom=0;right=0;align=center;spacingLeft=6;overflow=hidden;" vertex="1" parent="dKACLaoBQJQbCitSLf5S-129">
          <mxGeometry x="110" width="130" height="30" as="geometry" />
        </mxCell>
        <mxCell id="dKACLaoBQJQbCitSLf5S-132" value="M" style="shape=partialRectangle;connectable=0;fillColor=none;top=0;left=0;bottom=0;right=0;align=center;spacingLeft=6;overflow=hidden;" vertex="1" parent="dKACLaoBQJQbCitSLf5S-129">
          <mxGeometry x="240" width="90" height="30" as="geometry" />
        </mxCell>
        <mxCell id="dKACLaoBQJQbCitSLf5S-133" value="" style="shape=partialRectangle;collapsible=0;dropTarget=0;pointerEvents=0;fillColor=none;top=0;left=0;bottom=0;right=0;points=[[0,0.5],[1,0.5]];portConstraint=eastwest;align=center;" vertex="1" parent="dKACLaoBQJQbCitSLf5S-124">
          <mxGeometry y="90" width="330" height="30" as="geometry" />
        </mxCell>
        <mxCell id="dKACLaoBQJQbCitSLf5S-134" value="period" style="shape=partialRectangle;connectable=0;fillColor=none;top=0;left=0;bottom=0;right=0;editable=1;overflow=hidden;align=center;" vertex="1" parent="dKACLaoBQJQbCitSLf5S-133">
          <mxGeometry width="110" height="30" as="geometry" />
        </mxCell>
        <mxCell id="dKACLaoBQJQbCitSLf5S-135" value="date range" style="shape=partialRectangle;connectable=0;fillColor=none;top=0;left=0;bottom=0;right=0;align=center;spacingLeft=6;overflow=hidden;" vertex="1" parent="dKACLaoBQJQbCitSLf5S-133">
          <mxGeometry x="110" width="130" height="30" as="geometry" />
        </mxCell>
        <mxCell id="dKACLaoBQJQbCitSLf5S-136" style="shape=partialRectangle;connectable=0;fillColor=none;top=0;left=0;bottom=0;right=0;align=center;spacingLeft=6;overflow=hidden;" vertex="1" parent="dKACLaoBQJQbCitSLf5S-133">
          <mxGeometry x="240" width="90" height="30" as="geometry" />
        </mxCell>
        <mxCell id="dKACLaoBQJQbCitSLf5S-137" value="" style="shape=partialRectangle;collapsible=0;dropTarget=0;pointerEvents=0;fillColor=none;top=0;left=0;bottom=0;right=0;points=[[0,0.5],[1,0.5]];portConstraint=eastwest;align=center;" vertex="1" parent="dKACLaoBQJQbCitSLf5S-124">
          <mxGeometry y="120" width="330" height="30" as="geometry" />
        </mxCell>
        <mxCell id="dKACLaoBQJQbCitSLf5S-138" value="type" style="shape=partialRectangle;connectable=0;fillColor=none;top=0;left=0;bottom=0;right=0;editable=1;overflow=hidden;align=center;" vertex="1" parent="dKACLaoBQJQbCitSLf5S-137">
          <mxGeometry width="110" height="30" as="geometry" />
        </mxCell>
        <mxCell id="dKACLaoBQJQbCitSLf5S-139" value="ticket type" style="shape=partialRectangle;connectable=0;fillColor=none;top=0;left=0;bottom=0;right=0;align=center;spacingLeft=6;overflow=hidden;" vertex="1" parent="dKACLaoBQJQbCitSLf5S-137">
          <mxGeometry x="110" width="130" height="30" as="geometry" />
        </mxCell>
        <mxCell id="dKACLaoBQJQbCitSLf5S-140" style="shape=partialRectangle;connectable=0;fillColor=none;top=0;left=0;bottom=0;right=0;align=center;spacingLeft=6;overflow=hidden;" vertex="1" parent="dKACLaoBQJQbCitSLf5S-137">
          <mxGeometry x="240" width="90" height="30" as="geometry" />
        </mxCell>
      </root>
    </mxGraphModel>
  </diagram>
</mxfile>
